<svg width="200" height="200" viewBox="0 0 200 200" fill="none" xmlns="http://www.w3.org/2000/svg">
<g id="Abstract Design">
<g id="Petals">
<g id="Group 72">
<path id="Rectangle 130" d="M75.1055 61.1103C52.2067 38.8304 67.9801 0 99.9293 0C131.879 0 147.652 38.8304 124.753 61.1103L99.9293 85.2632L75.1055 61.1103Z" fill="#EEF8D3"/>
<path id="Rectangle 131" d="M75.2491 138.89C52.3503 161.17 68.1237 200 100.073 200C132.022 200 147.795 161.17 124.897 138.89L100.073 114.737L75.2491 138.89Z" fill="#EEF8D3"/>
</g>
<g id="Group 73">
<path id="Rectangle 130_2" d="M61.1103 124.894C38.8304 147.793 0 132.02 0 100.071C0 68.1214 38.8304 52.348 61.1103 75.2468L85.2632 100.071L61.1103 124.894Z" fill="#EEF8D3"/>
<path id="Rectangle 131_2" d="M138.89 124.75C161.17 147.649 200 131.876 200 99.9265C200 67.9773 161.17 52.2039 138.89 75.1028L114.737 99.9265L138.89 124.75Z" fill="#EEF8D3"/>
</g>
</g>
</g>
</svg>
