<svg width="195" height="45" viewBox="0 0 195 45" fill="none" xmlns="http://www.w3.org/2000/svg">
<path d="M16.8986 13.7498C11.7463 8.73683 15.2954 0 22.4839 0C29.6725 0 33.2215 8.73684 28.0693 13.7498L22.4839 19.1842L16.8986 13.7498Z" fill="#CBEA7B"/>
<path d="M16.9308 31.2502C11.7786 36.2632 15.3276 45 22.5162 45C29.7047 45 33.2537 36.2632 28.1015 31.2502L22.5162 25.8158L16.9308 31.2502Z" fill="#CBEA7B"/>
<path d="M13.7498 28.1012C8.73683 33.2534 0 29.7044 0 22.5158C0 15.3273 8.73684 11.7782 13.7498 16.9305L19.1842 22.5158L13.7498 28.1012Z" fill="#CBEA7B"/>
<path d="M31.2502 28.0687C36.2632 33.2209 45 29.6719 45 22.4834C45 15.2948 36.2632 11.7458 31.2502 16.898L25.8158 22.4834L31.2502 28.0687Z" fill="#CBEA7B"/>
<path d="M64.9988 25.9426V14.6251H68.4188V30.3751H63.4913L56.5838 19.0801H56.2013V30.3751H52.7812V14.6251H57.3938V14.6476H57.7088L64.5938 25.9426H64.9988Z" fill="white"/>
<path d="M80.8613 17.7526H84.2812V30.3751H80.8613V28.5301H80.7038C79.8937 29.6551 78.7463 30.3751 76.4737 30.3751C71.1412 30.3751 71.0063 25.9201 71.0063 24.0751V17.7526H74.4037V24.0751C74.4037 25.0651 74.1788 27.4501 77.4638 27.4501C80.4113 27.4501 80.8613 25.5601 80.8613 23.8501V17.7526Z" fill="white"/>
<path d="M91.5262 20.6776V25.1551V25.4251C91.5262 27.2476 92.3362 27.0001 95.6212 26.8201V30.1501C95.6212 30.1501 94.9462 30.3751 91.5262 30.3751C88.0837 30.3751 88.0837 27.5626 88.0837 25.7401V20.6776H86.4188V17.7976H88.0837V14.1526H91.5262V17.7976H95.6212V20.6776H91.5262Z" fill="white"/>
<path d="M105.254 17.7526C106.154 17.7526 106.897 17.9551 107.482 18.0901L106.942 21.3076C106.627 21.2176 105.749 21.0376 104.669 21.0376C102.127 21.0376 101.384 23.0176 101.384 24.7276V30.3751H97.9641V17.7526H101.384V19.6201H101.587C102.307 18.4051 103.072 17.7526 105.254 17.7526Z" fill="white"/>
<path d="M112.709 30.3751H109.312V17.8426H112.709V30.3751ZM112.709 16.9426H109.312V13.8826H112.709V16.9426Z" fill="white"/>
<path d="M120.164 20.6776V25.1551V25.4251C120.164 27.2476 120.974 27.0001 124.259 26.8201V30.1501C124.259 30.1501 123.584 30.3751 120.164 30.3751C116.721 30.3751 116.721 27.5626 116.721 25.7401V20.6776H115.056V17.7976H116.721V14.1526H120.164V17.7976H124.259V20.6776H120.164Z" fill="white"/>
<path d="M129.933 30.3751H126.536V17.8426H129.933V30.3751ZM129.933 16.9426H126.536V13.8826H129.933V16.9426Z" fill="white"/>
<path d="M139.3 17.5276C143.148 17.5276 146.343 19.5751 146.343 23.9626C146.343 28.3951 143.148 30.3751 139.3 30.3751C135.475 30.3751 132.28 28.3276 132.28 23.9626C132.28 19.6201 135.475 17.5276 139.3 17.5276ZM139.3 27.2701C141.46 27.2701 142.99 26.2351 142.99 23.9626C142.99 21.6226 141.46 20.6551 139.3 20.6551C137.163 20.6551 135.633 21.5776 135.633 23.9626C135.633 26.3251 137.163 27.2701 139.3 27.2701Z" fill="white"/>
<path d="M156.445 17.7526C161.777 17.7526 161.912 22.2301 161.912 24.0751V30.3751H158.515V24.0751C158.515 23.0851 158.717 20.7001 155.455 20.7001C152.485 20.7001 152.057 22.5901 152.057 24.3001V30.3751H148.637V17.7526H152.057V19.6201H152.215C153.025 18.4951 154.172 17.7526 156.445 17.7526Z" fill="white"/>
<path d="M167.887 30.3751H164.489V17.8426H167.887V30.3751ZM167.887 16.9426H164.489V13.8826H167.887V16.9426Z" fill="white"/>
<path d="M176.719 22.7251C179.577 23.1526 182.817 23.6476 182.817 26.6401C182.817 29.7676 180.567 30.3751 176.697 30.3751C173.839 30.3751 171.882 29.8576 170.869 28.8451C169.992 27.9676 169.992 26.9101 170.014 26.2576V26.0101H173.524V26.1226C173.524 27.2026 174.334 27.6976 176.607 27.6976C177.979 27.6976 179.284 27.5176 179.284 26.6851C179.284 25.7401 178.069 25.5601 176.697 25.4026C176.517 25.3801 176.337 25.3576 176.157 25.3351C172.534 24.8626 170.284 24.0526 170.284 21.5326C170.284 19.7776 171.297 17.6851 176.157 17.6851C181.377 17.6851 182.479 20.0026 182.479 21.9376V22.0501H178.992V21.9376C178.992 20.9476 178.137 20.4076 176.157 20.4076C174.244 20.4076 173.839 21.1051 173.839 21.4876C173.839 22.0501 174.222 22.3651 176.427 22.7026L176.719 22.7251Z" fill="white"/>
<path d="M189.501 20.6776V25.1551V25.4251C189.501 27.2476 190.311 27.0001 193.596 26.8201V30.1501C193.596 30.1501 192.921 30.3751 189.501 30.3751C186.059 30.3751 186.059 27.5626 186.059 25.7401V20.6776H184.394V17.7976H186.059V14.1526H189.501V17.7976H193.596V20.6776H189.501Z" fill="white"/>
</svg>
