<svg width="35" height="34" viewBox="0 0 35 34" fill="none" xmlns="http://www.w3.org/2000/svg">
<g id="Frame 2608168">
<g id="Petals">
<g id="Group 72">
<path id="Rectangle 130" d="M12.91 10.3888C9.01722 6.60116 11.6987 0 17.1301 0C22.5614 0 25.2429 6.60116 21.3501 10.3888L17.1301 14.4947L12.91 10.3888Z" fill="#CBEA7B"/>
<path id="Rectangle 131" d="M12.9344 23.6112C9.04164 27.3988 11.7231 34 17.1545 34C22.5858 34 25.2673 27.3988 21.3745 23.6112L17.1545 19.5053L12.9344 23.6112Z" fill="#CBEA7B"/>
</g>
<g id="Group 73">
<path id="Rectangle 130_2" d="M10.5304 21.2321C6.74276 25.1249 0.141602 22.4434 0.141602 17.012C0.141602 11.5807 6.74277 8.89919 10.5304 12.792L14.6363 17.012L10.5304 21.2321Z" fill="#CBEA7B"/>
<path id="Rectangle 131_2" d="M23.7529 21.2077C27.5404 25.1005 34.1416 22.419 34.1416 16.9876C34.1416 11.5562 27.5404 8.87477 23.7528 12.7676L19.6469 16.9876L23.7529 21.2077Z" fill="#CBEA7B"/>
</g>
</g>
</g>
</svg>
