<svg width="46" height="45" viewBox="0 0 46 45" fill="none" xmlns="http://www.w3.org/2000/svg">
<g id="Frame 2608168">
<g id="Petals">
<g id="Group 72">
<path id="Rectangle 130" d="M16.9196 13.7498C11.7673 8.73683 15.3164 0 22.5049 0C29.6935 0 33.2425 8.73684 28.0903 13.7498L22.5049 19.1842L16.9196 13.7498Z" fill="#CBEA7B"/>
<path id="Rectangle 131" d="M16.9518 31.2502C11.7996 36.2632 15.3486 45 22.5371 45C29.7257 45 33.2747 36.2632 28.1225 31.2502L22.5371 25.8158L16.9518 31.2502Z" fill="#CBEA7B"/>
</g>
<g id="Group 73">
<path id="Rectangle 130_2" d="M13.7708 28.1012C8.75783 33.2534 0.0209961 29.7044 0.0209961 22.5158C0.0209961 15.3273 8.75783 11.7782 13.7708 16.9305L19.2052 22.5158L13.7708 28.1012Z" fill="#CBEA7B"/>
<path id="Rectangle 131_2" d="M31.2712 28.0687C36.2842 33.2209 45.021 29.6719 45.021 22.4834C45.021 15.2948 36.2842 11.7458 31.2712 16.898L25.8368 22.4834L31.2712 28.0687Z" fill="#CBEA7B"/>
</g>
</g>
</g>
</svg>
